<svg xmlns="http://www.w3.org/2000/svg" viewBox="0 0 3000 1000">
  <defs>
    <style>
      .cls-1 {
        fill: #cbdfa9;
      }

      .cls-2 {
        fill: none;
        stroke: #000;
        stroke-dasharray: 12.03 12.03;
      }
    </style>
  </defs>
  <g id="fond">
    <rect class="cls-1" width="3000" height="1000"/>
  </g>
  <g id="chemin">
    <path class="cls-2" d="M0,806.32C137.25,810.48,281.54,853,431.24,837.1c157.32-16.66,105.32-193.84,287.41-232.62C819.76,583,854.31,646.65,964.5,661.31s132.66-58.63,212.49-4.9,63.39,161.42,108.47,168.64c37.36,6,63.55-35.4,76.18-71.07s30-78.72,67.51-83.54c19-2.43,37.72,6.45,56.84,6s40.46-19.44,31-36.07c-6.28-11.09-22.3-13.19-29.34-23.82-9.17-13.83,3.2-33.28,18.83-38.88s32.82-2.48,49.42-2.63c22.88-.19,46.89-7.7,61.39-25.4s15.82-46.8-1.1-62.19c-7.5-6.81-17.75-10.59-23.69-18.79-16.11-22.26,14-51.77,41.48-52.64s54.8,12,81.76,6.66c46.76-9.19,84.36-70,127.82-50.5,19,8.52,28.52,29.85,45,42.53,46.3,35.7,115.76-11.47,171,7.73,77.79,27.05,79.28,164.06,160.8,175.82,82.62,11.93,126-123.77,209.39-119.42,38.47,2,68.32,35,85.45,69.49s97,114.19,155.11,157.12C2726.83,747.23,2842,803,3000,805.88"/>
  </g>
</svg>
